<svg version="1.0" xmlns="http://www.w3.org/2000/svg" width="200" height="150" viewBox="380 220 350 120">
  <path d="M433.4 244.9c-10.4 2.7-19.8 10.4-24.2 19.9-2.2 4.8-2.7 7.1-2.7 14.2 0 10.4 2.9 17.4 10 24.5s14.1 10 24.5 10c7.1 0 9.4-.5 14.1-2.7 7.9-3.6 13.3-8.9 17.1-16.6 3-6 3.3-7.6 3.3-15.2 0-7-.5-9.5-2.7-14.1-5.6-12.2-16.4-19.6-29.4-20.4-3.8-.2-8.3-.1-10 .4m2.4 7.2c4.1 3 4.2 3.2 4.2 9v5.8l-5.3 4.1-5.4 4-6.9-2.8c-6.3-2.6-7-3.2-7.8-6.5-.8-3.1-.6-4 1.8-7.2 2.5-3.3 11.7-9.5 14.2-9.5.5 0 2.9 1.4 5.2 3.1m23.4.6c5.8 3.9 6.2 4.7 4.8 9-1.2 3.7-9.2 12.2-11.6 12.3-.6 0-3.2-1.6-5.8-3.5-4.6-3.6-4.6-3.7-4.6-9.5 0-5.7.1-5.9 4.3-9 4.8-3.5 6.9-3.4 12.9.7m13.6 25.8c.4 6.5-2.4 15.2-5.2 15.9-4.8 1.3-9 .5-13.7-2.4l-4.7-3.1 1.9-6.2c1.5-5.2 2.7-7 7.1-10.9l5.3-4.6 4.5 3.3c4.1 3 4.5 3.8 4.8 8m-45.6-2.8c1 .3 2.5 2.9 3.7 6.5l2 6-3.6 4.4c-3.6 4.3-3.9 4.4-9.4 4.4h-5.7l-2.2-4.7c-1.2-2.6-2.4-7.1-2.7-10.1-.6-5.3-.5-5.6 2.8-8.2l3.3-2.8 5.1 2c2.7 1.1 5.8 2.3 6.7 2.5m25.4 17.3c2.4 1.7 4.4 3.3 4.4 3.6 0 .2-.7 3.1-1.6 6.3-1.5 5.4-1.9 5.9-5.4 7-4.7 1.4-13.8 1.4-17.7.1-2.3-.8-3.3-2.1-4.2-4.9-1.7-5.7-1.4-7 2.2-11.1 3.1-3.8 3.3-3.8 10.5-3.9 6.6-.1 7.8.2 11.8 2.9m39.4-17.6V293h7v-14h15v14h7v-35h-7v15h-14.9l-.3-7.3-.3-7.2-3.2-.3-3.3-.3zm34.7-16.7c-.4.3-.7 1.7-.7 3 0 2.1.5 2.3 4.5 2.3h4.5v29h7v-29h4.5c4.3 0 4.5-.1 4.5-3v-3h-11.8c-6.5 0-12.2.3-12.5.7m30-.1c-.4.4-.7 8.3-.7 17.6V293h6.7l.8-10.2.7-10.3 4.1 10.2c4 9.8 4.3 10.3 7.2 10.3s3.2-.5 7-9.7l4-9.6.3 9.6.3 9.7h7.9l-.2-17.3-.3-17.2h-7.9l-5.5 12.9c-3 7-5.7 12.4-5.8 12-.2-.5-2.7-6.3-5.6-12.9-5.2-11.9-5.3-12-8.7-12.3-2-.2-3.9 0-4.3.4m45.3 16.9V293h9c8.9 0 9 0 9-2.5 0-2.2-.4-2.4-5.7-2.7-5.5-.3-5.8-.4-5.5-2.8.2-1.4 0-8-.3-14.8l-.7-12.2H602zm34.7-16.8c-.9.8-.9 29-.1 32 .5 1.7 1.4 2.3 3.5 2.3h2.9v-13.9l5.8-.3c5.4-.3 5.7-.4 6-3.1s.3-2.7-5.8-2.7h-6.1l.3-4.3.3-4.2 7.3-.3 7.2-.3V258h-10.3c-5.7 0-10.7.3-11 .7m34.3 1.5c-14.2 7.2-12.2 28.7 3.1 32.8 7.3 2 16.5-1.3 19.4-7 2-3.9 2-4-2-4-2.3 0-4.2.8-5.9 2.5-1.9 1.9-3.5 2.5-7 2.5-6.1 0-9.6-4-9.6-11 0-6.9 3.5-11 9.5-11 2.7 0 5.1.7 6.8 2 1.5 1.2 4 2 6.2 2h3.7l-1.9-3.3c-2.2-3.9-9.3-7.7-14.3-7.7-2 0-5.6 1-8 2.2"/>
</svg>
